<?xml version="1.0" encoding="utf-8"?>
<!-- Svg Vector Icons : http://www.onlinewebfonts.com/icon -->
<!DOCTYPE svg PUBLIC "-//W3C//DTD SVG 1.1//EN" "http://www.w3.org/Graphics/SVG/1.1/DTD/svg11.dtd">
<svg version="1.1" xmlns="http://www.w3.org/2000/svg" xmlns:xlink="http://www.w3.org/1999/xlink" x="0px" y="0px" viewBox="0 0 1000 1000" enable-background="new 0 0 1000 1000" xml:space="preserve">
<metadata> Svg Vector Icons : http://www.onlinewebfonts.com/icon </metadata>
<g><g transform="translate(0.000000,511.000000) scale(0.100000,-0.100000)"><path d="M405.5,4812.4c-112.3-35.2-251.1-185.1-282-301.8c-22-77.1-26.4-894.4-22-3634.8l6.6-3535.7l61.7-103.5c37.5-66.1,96.9-125.6,160.8-163l99.1-59.5h1641.2c1275.5,2.2,1639-4.4,1639-26.5c0-13.2-94.7-317.2-209.3-674.1c-114.6-354.7-209.3-663.1-209.3-687.3c0-85.9,63.9-165.2,169.6-207.1c99.1-37.5,202.7-39.7,1625.7-39.7c1423.1,0,1526.6,2.2,1625.7,39.7c107.9,41.9,169.6,121.2,169.6,211.5c0,26.4-94.7,339.3-211.5,698.3c-158.6,484.6-204.9,656.5-185.1,669.7c15.4,8.8,713.8,17.6,1550.8,17.6c1506.8,0,1526.6,0,1616.9,46.2c99.1,50.7,182.8,149.8,222.5,264.3c17.6,55.1,24.2,1024.3,24.2,3612.7c0,3374.8-2.2,3542.3-41.9,3626c-50.7,112.3-174,222.5-282,251.1C9455,4852.1,511.3,4845.5,405.5,4812.4z M9151,4250.7c41.9-19.8,99.1-70.5,125.6-112.3l50.7-74.9V1237.1v-2828.5H4998.6H669.9v2808.7c0,2998.1-4.4,2894.6,105.7,2991.5c24.2,22,72.7,48.5,105.7,59.5c35.2,8.8,1892.3,19.8,4128.2,19.8C8838.2,4290.3,9078.3,4288.1,9151,4250.7z M5210-2069.4c213.7-125.6,125.5-447.2-123.4-447.2c-116.7,0-200.4,61.7-233.5,174C4791.5-2135.5,5020.6-1959.3,5210-2069.4z"/><path d="M3641.6,3468.7c-33-88.1-39.6-92.5-149.8-110.1l-116.8-19.8l90.3-66.1c50.7-35.2,90.3-68.3,90.3-72.7c0-2.2-15.4-48.5-33-99.1c-17.6-52.9-30.8-99.1-26.4-101.3c4.4-4.4,44.1,17.6,88.1,46.3c96.9,68.3,96.9,68.3,198.3,0c90.3-61.7,99.1-48.5,55.1,77.1c-24.2,70.5-22,77.1,59.5,143.2c81.5,68.3,81.5,70.5,30.8,83.7c-28.6,8.8-79.3,15.4-112.3,15.4c-48.5,0-63.9,15.4-83.7,83.7C3692.3,3570,3679,3572.2,3641.6,3468.7z"/><path d="M5890.7,3122.8c0-13.2,19.8-63.9,46.3-114.6c61.7-121.2,143.2-451.6,160.8-656.5c28.6-301.8-57.3-740.2-202.7-1024.4c-204.9-405.3-581.6-766.6-986.9-947.2c-420.8-187.2-938.4-211.5-1403.2-68.3c-105.7,33-174,44.1-182.8,30.8c-26.4-39.6,273.2-449.4,458.2-625.6c400.9-383.3,812.9-535.3,1394.4-508.9c599.2,26.4,1019.9,209.3,1431.9,621.2c405.3,405.3,583.8,832.7,586,1398.9c0,387.7-61.7,654.3-235.7,991.3c-119,229.1-279.8,431.8-482.4,601.4C6212.3,3041.3,5890.7,3208.7,5890.7,3122.8z"/><path d="M4174.7,2395.8l-92.5-242.3h-215.9c-248.9,0-354.7-15.4-354.7-52.9c0-15.4,96.9-94.7,218.1-178.4l215.9-152l-52.9-176.2c-30.8-96.9-63.9-198.3-74.9-226.9c-59.5-156.4-8.8-152,262.1,24.2l218.1,141l218.1-141c200.5-127.8,295.2-167.4,295.2-123.4c0,8.8-35.2,121.2-77.1,246.7c-41.9,127.8-74.9,237.9-72.7,246.7c4.4,8.8,99.1,83.7,213.7,165.2c114.6,83.7,211.5,160.8,215.9,174c11,35.2-101.3,52.9-354.7,52.9h-222.5l-88.1,237.9c-55.1,147.6-101.3,237.9-123.4,242.3C4276,2638.2,4245.2,2578.7,4174.7,2395.8z"/></g></g>
</svg>