<?xml version="1.0" encoding="iso-8859-1"?>
<!-- Generator: Adobe Illustrator 19.0.0, SVG Export Plug-In . SVG Version: 6.00 Build 0)  -->
<svg version="1.1" id="Layer_1" xmlns="http://www.w3.org/2000/svg" xmlns:xlink="http://www.w3.org/1999/xlink" x="0px" y="0px"
	 viewBox="0 0 485 485" style="enable-background:new 0 0 485 485;" xml:space="preserve">
<g>
	<g>
		<g>
			<path d="M402.5,0h-320C67.336,0,55,12.336,55,27.5v430c0,15.164,12.336,27.5,27.5,27.5h320c15.164,0,27.5-12.336,27.5-27.5v-430
				C430,12.336,417.664,0,402.5,0z M415,457.5c0,6.893-5.607,12.5-12.5,12.5h-320c-6.893,0-12.5-5.607-12.5-12.5V405h345V457.5z
				 M415,390H70V95h345V390z M415,80H70V27.5C70,20.607,75.607,15,82.5,15h320c6.893,0,12.5,5.607,12.5,12.5V80z"/>
			<rect x="192.5" y="40" width="100" height="15"/>
			<rect x="222.5" y="430" width="40" height="15"/>
		</g>
	</g>
</g>
<g>
</g>
<g>
</g>
<g>
</g>
<g>
</g>
<g>
</g>
<g>
</g>
<g>
</g>
<g>
</g>
<g>
</g>
<g>
</g>
<g>
</g>
<g>
</g>
<g>
</g>
<g>
</g>
<g>
</g>
</svg>
